<?xml version="1.0" encoding="UTF-8" standalone="no"?>
<svg
   xmlns:dc="http://purl.org/dc/elements/1.1/"
   xmlns:cc="http://creativecommons.org/ns#"
   xmlns:rdf="http://www.w3.org/1999/02/22-rdf-syntax-ns#"
   xmlns:svg="http://www.w3.org/2000/svg"
   xmlns="http://www.w3.org/2000/svg"
   xmlns:sodipodi="http://sodipodi.sourceforge.net/DTD/sodipodi-0.dtd"
   xmlns:inkscape="http://www.inkscape.org/namespaces/inkscape"
   id="emoji"
   viewBox="0 0 72 72"
   version="1.1"
   sodipodi:docname="favicon.svg"
   inkscape:version="1.0.2 (e86c870879, 2021-01-15)">
  <metadata
     id="metadata48">
    <rdf:RDF>
      <cc:Work
         rdf:about="">
        <dc:format>image/svg+xml</dc:format>
        <dc:type
           rdf:resource="http://purl.org/dc/dcmitype/StillImage" />
      </cc:Work>
    </rdf:RDF>
  </metadata>
  <defs
     id="defs46" />
  <sodipodi:namedview
     pagecolor="#ffffff"
     bordercolor="#666666"
     borderopacity="1"
     objecttolerance="10"
     gridtolerance="10"
     guidetolerance="10"
     inkscape:pageopacity="0"
     inkscape:pageshadow="2"
     inkscape:window-width="1916"
     inkscape:window-height="1036"
     id="namedview44"
     showgrid="false"
     inkscape:zoom="8.7308046"
     inkscape:cx="29.070358"
     inkscape:cy="43.11275"
     inkscape:window-x="1920"
     inkscape:window-y="20"
     inkscape:window-maximized="0"
     inkscape:current-layer="emoji" />
  <g
     id="color"
     transform="matrix(1.3669209,0,0,1.3669209,-13.20319,-12.924911)">
    <path
       fill="#ffffff"
       stroke="none"
       stroke-linecap="round"
       stroke-linejoin="round"
       stroke-miterlimit="10"
       stroke-width="2"
       d="M 33.5798,37.6939"
       id="path2" />
    <path
       fill="#b1cc33"
       stroke="#b1cc33"
       stroke-miterlimit="10"
       stroke-width="1.8"
       d="m 46.98,45.39 c -2.83,0.03 -3.78,2.88 -3.78,2.88 0,0 -0.97,1.92 -0.97,4.81 v 5.73 c 0,1.09 -0.87,1.96 -1.96,1.96 h -7.61 c -1.09,0 -1.96,-0.87 -1.96,-1.96 v -5.73 c 0,-2.89 -0.97,-4.81 -0.97,-4.81 0,0 -0.92,-2.76 -3.65,-2.88 0,0 1.43,-0.11 1.1,-0.11 1.81,-0.24 5.05,-1.05 6.4,-3.74 0,0 0,-2.31 2.31,-2.31 2.31,0 2.5,2.31 2.5,2.31 1.55,3.1 5.58,3.7 7.1,3.82 -0.09,0.01 -0.19,0.01 -0.29,0.03 z"
       id="path4" />
    <path
       fill="#5c9e31"
       stroke="none"
       d="m 58.3875,34.3862 c 0,6.0769 -5.1058,11 -11.4038,11 -0.0481,0 -0.0866,0 -0.1346,-0.0096 -0.2308,0.0096 -0.4711,0 -0.6923,-0.0192 -0.2116,-0.0096 -0.4135,-0.0192 -0.625,0 h -0.0384 c -1.2404,-0.0961 -4.1731,-0.5192 -6.0481,-2.3653 0,0 9.6511,-16.1095 9.8048,-15.642 0.1537,0.4675 -32.0452,4.0746 -13.2663,-1.0311 7.7692,-2.1154 9.9135,-4.7404 9.4808,-7.2308 l -9.3942,-8.3173 c 0.2404,0 0.4711,0.0096 0.7019,0.0192 7.5481,0.2596 13.8077,5.4423 15.4327,12.3269 0.2308,1.0192 0.8558,1.9039 1.7211,2.5385 2.721,2.0095 4.4614,5.173 4.4614,8.7307 z"
       id="path6" />
    <path
       fill="#5c9e31"
       stroke="none"
       d="m 39.4452,42.992 c 0,0 -0.7788,-0.8847 -1.0577,-1.4519 0,0 -0.1923,-2.3077 -2.5,-2.3077 -2.3077,0 -2.3077,2.3077 -2.3077,2.3077 -1.3462,2.6923 -4.5866,3.5 -6.4038,3.7404 -0.2116,0 -0.4231,0.0096 -0.6443,0.0288 -0.4038,0.0481 -0.8173,0.0769 -1.2307,0.0769 -0.1443,0 -0.2884,-0.0096 -0.4231,-0.0096 -6.1635,-0.1634 -11.1058,-5.0385 -11.1058,-11.0289 0,-3.6538 1.8461,-6.8942 4.6827,-8.9038 0.9038,-0.6443 1.4807,-1.6154 1.7596,-2.6731 1.5096,-5.8173 6.3558,-10.3654 12.4519,-11.6346 0.452,-0.0962 0.9135,-0.1827 1.375,-0.2308 0.2308,-0.0289 0.4616,-0.0577 0.702,-0.0769 0.4326,-0.0385 -4.8365,-0.0577 1.3269,-0.0577 8.3025,0 17.1798,13.3792 -0.0866,15.5481 C 55.65,17.75 62.85,45.75 39.4452,42.992 Z"
       id="path8" />
    <path
       fill="#b1cc33"
       stroke="none"
       d="m 30.8106,46.7419 c 0.5192,0.5673 1.1346,1.0577 1.8173,1.4616 -0.7019,-0.3943 -1.3462,-0.8942 -1.8846,-1.4616 -0.6827,-0.7212 -1.5961,-1.173 -2.5673,-1.3557 h 0.1443 c 0.9422,0.1827 1.8268,0.6346 2.4903,1.3557 z"
       id="path10" />
    <path
       fill="#b1cc33"
       stroke="none"
       d="m 45.2049,45.3862 c -1.0289,0.125 -1.9808,0.5673 -2.6924,1.3173 -1.3846,1.4904 -3.375,2.4423 -5.5865,2.5192 2.0961,-0.1154 3.9712,-1.0577 5.2981,-2.5192 0.6923,-0.75 1.6154,-1.1923 2.6058,-1.3173 z"
       id="path12" />
    <path
       fill="#5c9e31"
       stroke="#5c9e31"
       stroke-linejoin="round"
       stroke-miterlimit="10"
       stroke-width="1.8"
       d="m 46.9837,45.3862 c -2.8365,0.0384 -3.7885,2.8846 -3.7885,2.8846 0,0 -0.9615,1.9231 -0.9615,4.8077 v 5.7307 c 0,1.0865 -0.875,1.9616 -1.9615,1.9616 v 0 c 0,-9.25 1.7903,-16.2083 1.7903,-16.2083 0.625,2.0313 4.9212,0.8237 4.9212,0.8237 z"
       id="path14" />
  </g>
  <g
     id="hair" />
  <g
     id="skin" />
  <g
     id="skin-shadow" />
  <g
     id="line"
     transform="matrix(1.3669209,0,0,1.3669209,-13.20319,-12.924911)">
    <path
       fill="none"
       stroke="#000000"
       stroke-linecap="round"
       stroke-linejoin="round"
       stroke-miterlimit="10"
       stroke-width="2"
       d="M 33.5798,37.6939"
       id="path20" />
    <path
       fill="none"
       stroke="#000000"
       stroke-miterlimit="10"
       stroke-width="2"
       d="m 26.7232,45.3139 c -0.4196,0.0478 -0.8461,0.0723 -1.278,0.0723 -6.125,0 -11.0961,-4.9423 -11.0961,-11.0385 0,-3.6552 1.7871,-6.8941 4.5366,-8.9045 0.8801,-0.6435 1.4456,-1.6121 1.7114,-2.6694 1.7341,-6.898 8.0083,-12.003 15.4732,-12.003 7.5784,0 13.9358,5.2744 15.5442,12.3414 0.2335,1.0259 0.8381,1.9071 1.6744,2.5454 2.634,2.0103 4.3295,5.1681 4.3295,8.7285 0,6.0769 -4.9519,11 -11.0577,11 -0.161,0 -0.3212,-0.0034 -0.4805,-0.0101"
       id="path22" />
    <path
       fill="none"
       stroke="#000000"
       stroke-miterlimit="10"
       stroke-width="2"
       d="m 26.7232,45.3139 c -0.4196,0.0478 -0.8461,0.0723 -1.278,0.0723 -6.125,0 -11.0961,-4.9423 -11.0961,-11.0385 0,-3.6552 1.7871,-6.8941 4.5366,-8.9045 0.8801,-0.6435 1.4456,-1.6121 1.7114,-2.6694 1.7341,-6.898 8.0083,-12.003 15.4732,-12.003 7.5784,0 13.9358,5.2744 15.5442,12.3414 0.2335,1.0259 0.8381,1.9071 1.6744,2.5454 2.634,2.0103 4.3295,5.1681 4.3295,8.7285 0,6.0769 -4.9519,11 -11.0577,11 -0.161,0 -0.3212,-0.0034 -0.4805,-0.0101"
       id="path24" />
    <path
       fill="none"
       stroke="#000000"
       stroke-linecap="round"
       stroke-linejoin="round"
       stroke-miterlimit="10"
       stroke-width="2"
       d="m 46.0798,45.3862 c 0,0 -0.2019,0 -0.5481,-0.0288 -0.0096,0 -0.0288,0 -0.0385,0"
       id="path26" />
    <path
       fill="none"
       stroke="#000000"
       stroke-linecap="round"
       stroke-linejoin="round"
       stroke-miterlimit="10"
       stroke-width="2"
       d="m 27.176,45.2804 c -0.7692,0.1058 -1.2885,0.1058 -1.2885,0.1058"
       id="path28" />
    <path
       fill="none"
       stroke="#000000"
       stroke-linecap="round"
       stroke-linejoin="round"
       stroke-miterlimit="10"
       stroke-width="2"
       d="m 25.8875,45.3862 c 0,0 5.7692,0 7.6923,-3.8462"
       id="path30" />
    <path
       fill="none"
       stroke="#000000"
       stroke-linecap="round"
       stroke-miterlimit="10"
       stroke-width="2"
       d="m 43.1952,48.2708 c 0,0 -0.9615,1.9231 -0.9615,4.8077 v 2.0979 3.6313 c 0,1.0842 -0.8789,1.9631 -1.9631,1.9631 h -1.883 -3.8462 -1.883 c -1.0842,0 -1.9631,-0.8789 -1.9631,-1.9631 v -3.6313 -2.0979 c 0,-2.8846 -0.9615,-4.8077 -0.9615,-4.8077"
       id="path32" />
    <path
       fill="none"
       stroke="#000000"
       stroke-linecap="round"
       stroke-linejoin="round"
       stroke-miterlimit="10"
       stroke-width="2"
       d="m 46.0798,45.3862 c 0,0 -5.7692,0 -7.6923,-3.8462"
       id="path34" />
    <path
       fill="none"
       stroke="#000000"
       stroke-miterlimit="10"
       stroke-width="2"
       d="m 26.7232,45.3139 c -0.4196,0.0478 -0.8461,0.0723 -1.278,0.0723 -6.125,0 -11.0961,-4.9423 -11.0961,-11.0385 0,-3.6552 1.7871,-6.8941 4.5366,-8.9045 0.8801,-0.6435 1.4456,-1.6121 1.7114,-2.6694 1.7341,-6.898 8.0083,-12.003 15.4732,-12.003 7.5784,0 13.9358,5.2744 15.5442,12.3414 0.2335,1.0259 0.8381,1.9071 1.6744,2.5454 2.634,2.0103 4.3295,5.1681 4.3295,8.7285 0,6.0769 -4.9519,11 -11.0577,11 -0.161,0 -0.3212,-0.0034 -0.4805,-0.0101"
       id="path36" />
    <path
       fill="none"
       stroke="#000000"
       stroke-linecap="round"
       stroke-linejoin="round"
       stroke-miterlimit="10"
       stroke-width="2"
       d="m 46.0798,45.3862 c 0,0 -0.2019,0 -0.5481,-0.0288 -0.0096,0 -0.0288,0 -0.0385,0"
       id="path38" />
    <path
       fill="none"
       stroke="#000000"
       stroke-linecap="round"
       stroke-linejoin="round"
       stroke-miterlimit="10"
       stroke-width="2"
       d="m 27.176,45.2804 c -0.7692,0.1058 -1.2885,0.1058 -1.2885,0.1058"
       id="path40" />
  </g>
</svg>
